<?xml version="1.0" encoding="utf-8"?>
<svg xmlns="http://www.w3.org/2000/svg">
<!-- nav icons -->
<symbol id="horarios" viewBox="0 0 16 16"><g clip-path="url(#a)"><path stroke-linecap="round" stroke-width="1" d="M5 2h-.8c-1.12 0-1.68 0-2.108.218a2 2 0 0 0-.874.874C1 3.52 1 4.08 1 5.2V7m4-5h6M5 2V1m0 1v2m6-2h.8c1.12 0 1.68 0 2.108.218a2 2 0 0 1 .874.874C15 3.52 15 4.08 15 5.2V7m-4-5V1m0 1v2m4 3v4.8c0 1.12 0 1.68-.218 2.108a2 2 0 0 1-.874.874C13.48 15 12.92 15 11.8 15H4.2c-1.12 0-1.68 0-2.108-.218a2 2 0 0 1-.874-.874C1 13.48 1 12.92 1 11.8V7m14 0H1"/></g><defs><clipPath id="a"><path fill="#fff" d="M0 0h16v16H0z"/></clipPath></defs>
</symbol>
<symbol id="home" viewBox="0 0 16 16"><path stroke-linecap="round" stroke-linejoin="round" stroke-width="1" d="M3 5.571V12a2 2 0 0 0 2 2h6a2 2 0 0 0 2-2V5.571m-10 0L1 7m2-1.429L8 2l5 3.571m0 0L15 7"/>
</symbol>
<symbol id="info" viewBox="0 0 16 16"><g clip-path="url(#a)"><path stroke-linecap="round" stroke-linejoin="round" stroke-width="2" d="M8 11V8m0-3v-.023M15 8A7 7 0 1 1 1 8a7 7 0 0 1 14 0"/></g><defs><clipPath id="a"><path fill="#fff" d="M0 0h16v16H0z"/></clipPath></defs>
</symbol>
<symbol id="contactos" viewBox="0 0 16 16"><g clip-path="url(#a)"><path stroke-linejoin="round" stroke-width="1" d="M1.218 2.092C1 2.52 1 3.08 1 4.2v4.1c0 1.12 0 1.68.218 2.108a2 2 0 0 0 .874.874c.305.155.678.2 1.273.213V15l5.51-3.5H11.8c1.12 0 1.68 0 2.108-.218a2 2 0 0 0 .874-.874C15 9.98 15 9.42 15 8.3V4.2c0-1.12 0-1.68-.218-2.108a2 2 0 0 0-.874-.874C13.48 1 12.92 1 11.8 1H4.2c-1.12 0-1.68 0-2.108.218a2 2 0 0 0-.874.874Z"/></g><defs><clipPath id="a"><path fill="#fff" d="M0 0h16v16H0z"/></clipPath></defs>
</symbol>
<symbol id="configuracion" viewBox="0 0 16 16" stroke-width="1">
  <path d="M10 8C10 9.10457 9.10457 10 8 10C6.89543 10 6 9.10457 6 8C6 6.89543 6.89543 6 8 6C9.10457 6 10 6.89543 10 8Z"/>
  <path d="M6.29554 2.32852C6.80999 0.557161 9.19001 0.557161 9.70446 2.32852C9.97829 3.27138 10.8976 3.83057 11.8095 3.609C13.5227 3.19275 14.7127 5.36442 13.5139 6.71951C12.8758 7.44081 12.8758 8.55919 13.5139 9.28049C14.7127 10.6356 13.5227 12.8073 11.8095 12.391C10.8976 12.1694 9.97829 12.7286 9.70446 13.6715C9.19001 15.4428 6.80999 15.4428 6.29554 13.6715C6.02171 12.7286 5.10245 12.1694 4.19054 12.391C2.47735 12.8073 1.28734 10.6356 2.48608 9.28049C3.12415 8.55919 3.12415 7.44081 2.48608 6.71951C1.28734 5.36442 2.47735 3.19275 4.19054 3.609C5.10245 3.83057 6.02171 3.27138 6.29554 2.32852Z"/>
</symbol>
<symbol id="perfil" viewBox="0 0 16 16"><path stroke-linecap="round" stroke-linejoin="round" stroke-width="1" d="M2 15v-2a3 3 0 0 1 3-3h6a3 3 0 0 1 3 3v2M8 1C6.472 1 5 2.19 5 4c0 1.528 1.19 3 3 3s3-1.472 3-3c0-1.81-1.472-3-3-3"/>
</symbol>
<!-- theme icons -->
<symbol id="light" viewBox="0 0 16 16">
  <path d="M6 .278a.77.77 0 0 1 .08.858 7.2 7.2 0 0 0-.878 3.46c0 4.021 3.278 7.277 7.318 7.277q.792-.001 1.533-.16a.79.79 0 0 1 .81.316.73.73 0 0 1-.031.893A8.35 8.35 0 0 1 8.344 16C3.734 16 0 12.286 0 7.71 0 4.266 2.114 1.312 5.124.06A.75.75 0 0 1 6 .278"/>
  <path d="M10.794 3.148a.217.217 0 0 1 .412 0l.387 1.162c.173.518.579.924 1.097 1.097l1.162.387a.217.217 0 0 1 0 .412l-1.162.387a1.73 1.73 0 0 0-1.097 1.097l-.387 1.162a.217.217 0 0 1-.412 0l-.387-1.162A1.73 1.73 0 0 0 9.31 6.593l-1.162-.387a.217.217 0 0 1 0-.412l1.162-.387a1.73 1.73 0 0 0 1.097-1.097zM13.863.099a.145.145 0 0 1 .274 0l.258.774c.115.346.386.617.732.732l.774.258a.145.145 0 0 1 0 .274l-.774.258a1.16 1.16 0 0 0-.732.732l-.258.774a.145.145 0 0 1-.274 0l-.258-.774a1.16 1.16 0 0 0-.732-.732l-.774-.258a.145.145 0 0 1 0-.274l.774-.258c.346-.115.617-.386.732-.732z"/>
</symbol>
<symbol id="dark" viewBox="0 0 16 16">
  <path d="M12 8a4 4 0 1 1-8 0 4 4 0 0 1 8 0M8.5 2.5a.5.5 0 1 1-1 0 .5.5 0 0 1 1 0m0 11a.5.5 0 1 1-1 0 .5.5 0 0 1 1 0m5-5a.5.5 0 1 1 0-1 .5.5 0 0 1 0 1m-11 0a.5.5 0 1 1 0-1 .5.5 0 0 1 0 1m9.743-4.036a.5.5 0 1 1-.707-.707.5.5 0 0 1 .707.707m-7.779 7.779a.5.5 0 1 1-.707-.707.5.5 0 0 1 .707.707m7.072 0a.5.5 0 1 1 .707-.707.5.5 0 0 1-.707.707M3.757 4.464a.5.5 0 1 1 .707-.707.5.5 0 0 1-.707.707"/>
</symbol>
<!-- modal icons -->
<symbol id="video" viewBox="0 0 16 16" fill="none" xmlns="http://www.w3.org/2000/svg">
  <path d="M11 8V5C11 3.89543 10.1046 3 9 3H3C1.89543 3 1 3.89543 1 5V11C1 12.1046 1.89543 13 3 13H9C10.1046 13 11 12.1046 11 11V8ZM11 8L15 4V12L11 8Z"/>
</symbol>
<symbol id="lens" viewBox="0 0 40 42" xmlns="http://www.w3.org/2000/svg">
  <path d="M34.6034 22.0612C33.0703 29.6034 25.6329 34.4909 17.9916 32.9776C10.3502 31.4644 5.39853 24.1236 6.93165 16.5814C8.46476 9.0392 15.9021 4.15176 23.5435 5.66499C31.1848 7.17821 36.1365 14.5191 34.6034 22.0612ZM37.6196 22.6585C35.7522 31.8449 26.6935 37.7978 17.3864 35.9547C14.8229 35.4471 12.5079 34.4009 10.5381 32.9595L4.44602 39.4586C3.86911 40.0741 2.89593 40.1114 2.27238 39.542C1.64882 38.9725 1.61101 38.012 2.18793 37.3965L8.24072 30.9393C4.56808 27.0749 2.77897 21.5749 3.91543 15.9841C5.78277 6.79771 14.8415 0.844808 24.1486 2.68791C33.4558 4.53101 39.4869 13.4722 37.6196 22.6585Z"/>
</symbol>
<symbol id="logout" width="16" height="16" viewBox="0 0 16 16" fill="none" xmlns="http://www.w3.org/2000/svg">
<g clip-path="url(#clip0_2_6)">
<path d="M10 4V1H1M1 1V11L6 15V5L1 1ZM9 10H15M15 10L12 7M15 10L12 13" stroke="black" stroke-width="2" stroke-linecap="round" stroke-linejoin="round"/>
</g>
<defs>
<clipPath id="clip0_2_6">
<rect width="16" height="16" fill="white"/>
</clipPath>
</defs>
</symbol>

</svg>