<svg xmlns="http://www.w3.org/2000/svg" fill="none" viewBox="0 0 16 16"><g clip-path="url(#a)"><path stroke="#000" stroke-linecap="round" stroke-width="2" d="M5 2h-.8c-1.12 0-1.68 0-2.108.218a2 2 0 0 0-.874.874C1 3.52 1 4.08 1 5.2V7m4-5h6M5 2V1m0 1v2m6-2h.8c1.12 0 1.68 0 2.108.218a2 2 0 0 1 .874.874C15 3.52 15 4.08 15 5.2V7m-4-5V1m0 1v2m4 3v4.8c0 1.12 0 1.68-.218 2.108a2 2 0 0 1-.874.874C13.48 15 12.92 15 11.8 15H4.2c-1.12 0-1.68 0-2.108-.218a2 2 0 0 1-.874-.874C1 13.48 1 12.92 1 11.8V7m14 0H1"/></g><defs><clipPath id="a"><path fill="#fff" d="M0 0h16v16H0z"/></clipPath></defs></svg>