<svg xmlns="http://www.w3.org/2000/svg" fill="none" viewBox="0 0 16 16"><g clip-path="url(#a)"><path stroke="#000" stroke-linejoin="round" stroke-width="2" d="M1.218 2.092C1 2.52 1 3.08 1 4.2v4.1c0 1.12 0 1.68.218 2.108a2 2 0 0 0 .874.874c.305.155.678.2 1.273.213V15l5.51-3.5H11.8c1.12 0 1.68 0 2.108-.218a2 2 0 0 0 .874-.874C15 9.98 15 9.42 15 8.3V4.2c0-1.12 0-1.68-.218-2.108a2 2 0 0 0-.874-.874C13.48 1 12.92 1 11.8 1H4.2c-1.12 0-1.68 0-2.108.218a2 2 0 0 0-.874.874Z"/></g><defs><clipPath id="a"><path fill="#fff" d="M0 0h16v16H0z"/></clipPath></defs></svg>